<svg width="37" height="37" viewBox="0 0 37 37" fill="none" xmlns="http://www.w3.org/2000/svg"><path fill-rule="evenodd" clip-rule="evenodd" d="M18.913 1.6c9.188 0 16.636 7.448 16.636 16.636 0 9.187-7.448 16.635-16.636 16.635-9.188 0-16.636-7.448-16.636-16.635C2.277 9.048 9.725 1.6 18.913 1.6Z" fill="#fff" fill-opacity=".1"/><path fill-rule="evenodd" clip-rule="evenodd" d="M23 8.386h-8a6 6 0 0 0-6 6v8a6 6 0 0 0 6 6h8a6 6 0 0 0 6-6v-8a6 6 0 0 0-6-6Zm-12 6a4 4 0 0 1 4-4h8a4 4 0 0 1 4 4v8a4 4 0 0 1-4 4h-8a4 4 0 0 1-4-4v-8Zm8 9a5 5 0 1 1 0-10 5 5 0 0 1 0 10Zm0-2a3 3 0 1 0 0-6 3 3 0 0 0 0 6Zm6-8a1 1 0 1 1-2 0 1 1 0 0 1 2 0Z" fill="#fff"/></svg>