<svg width="16" height="16" viewBox="0 0 16 16" fill="none" xmlns="http://www.w3.org/2000/svg"><path fill-rule="evenodd" clip-rule="evenodd" d="M7.09 5.07c.414-.558.562-1.147.093-1.667C6.132 1.933 5.424 1.022 4.98.584c-.843-.834-2.231-.72-2.962 0-.392.386-.525.519-.928.928-2.245 2.246-.876 6.993 2.763 10.636 3.638 3.641 8.385 5.01 10.634 2.76.372-.358.687-.673.935-.936.716-.757.825-2.083-.005-2.945-.425-.442-1.293-1.115-2.827-2.212-.47-.42-1.027-.33-1.537.006-.246.16-.425.324-.762.662l-.613.613c-.081.08-1.177-.468-2.242-1.533-1.064-1.066-1.613-2.163-1.533-2.243l.614-.614c.107-.107.158-.159.224-.228.137-.144.25-.274.348-.407Zm3.719 6.156.613-.613c.185-.186.306-.3.404-.38 1.343.966 2.122 1.572 2.44 1.903.19.198.16.56-.005.735-.23.243-.528.541-.894.894-1.455 1.455-5.286.35-8.383-2.75-3.098-3.1-4.203-6.933-2.76-8.377.402-.408.53-.535.916-.916.145-.143.54-.175.717 0 .341.337.975 1.148 1.907 2.447-.048.06-.108.128-.181.205l-.197.2-.613.613C3.73 6.23 4.618 8.004 6.305 9.693c1.686 1.687 3.461 2.576 4.504 1.533ZM9.328.056a7.604 7.604 0 0 1 6.62 6.62l-1.58.263a6.002 6.002 0 0 0-5.303-5.303l.263-1.58ZM8.8 3.218a4.401 4.401 0 0 1 3.985 3.985l-1.585.264a2.8 2.8 0 0 0-2.664-2.664L8.8 3.218Z" fill="#293449"/></svg>