<svg width="90" height="90" viewBox="0 0 90 90" fill="none" xmlns="http://www.w3.org/2000/svg"><path d="M73.6297 9.0724H44.6138c-1.6651 0-3.0409 1.2481-3.2463 2.8561h-4.2249c-1.5536 0-2.8175 1.2624-2.8175 2.8142v.2324H29.891c-3.8404 0-7.0353 2.8046-7.641 6.4692H2.3873c-.6971 0-1.2623.565-1.2623 1.2623s.5652 1.2623 1.2623 1.2623H22.25c.6054 3.6671 3.8005 6.4739 7.641 6.4739h4.4341v.2324c0 1.5518 1.2639 2.8142 2.8175 2.8142h4.2249c.2054 1.608 1.5812 2.8561 3.2463 2.8561h1.8993c.3098 2.1178.7975 5.6143-1.2384 8.8484-.5271.8312-.3885 1.4592-.1791 1.8395.2087.3795.6621.8318 1.6364.8318h5.2809l-1.4818 14.969H45.525c-4.6893 0-8.5044 3.8057-8.5044 8.4835v6.3263c0 1.1894.9686 2.1571 2.1592 2.1571h32.3747c1.1906 0 2.1591-.9677 2.1591-2.1571V64.9913c0-1.1894-.9685-2.1571-2.1591-2.1571h-3.4989c.0462-3.3383.2752-6.5239.6845-9.4845.0955-.6908-.3869-1.328-1.0774-1.4234-.6913-.0951-1.3278.3871-1.4232 1.0775-.425 3.0737-.6618 6.3756-.7082 9.8304H53.0679l1.5935-16.0972a.401.401 0 0 0 .001-.0109l1.0277-10.3808h15.7217c-1.7851 3.2262-3.1406 6.8464-4.1201 11.0008-.16.6785.2604 1.3582.939 1.5183.0974.023.1949.034.2908.034.5722 0 1.0904-.3918 1.2274-.973 1.0545-4.4725 2.5599-8.2739 4.593-11.5986 7.2061-.3709 12.9544-6.3382 12.9544-13.6202-.0003-7.5179-6.131-13.6342-13.6666-13.6342ZM29.891 27.918c-2.879 0-5.2213-2.3381-5.2213-5.2117 0-2.871 2.3423-5.2069 5.2213-5.2069h4.4341v10.4184H29.891v.0002Zm6.9586 2.7568V14.7425c0-.1597.1315-.2896.293-.2896h4.1957v16.5115h-4.1957c-.1588.0001-.293-.1325-.293-.2895Zm34.3393 46.6015H39.545v-5.9589c0-3.2858 2.6826-5.9589 5.9798-5.9589h1.8197v2.5841c0 2.3884 2.6139 4.6372 4.6399 4.6372h19.2044v4.6965h.0001Zm0-11.9178v4.6966H51.9846c-.6306 0-2.1154-1.1049-2.1154-2.1127v-2.5841h1.8035l.0034.0002.0035-.0002h19.5093v.0002ZM52.2626 45.3403h-4.1889c1.6533-3.4362 1.2916-6.8713.99-8.9951h4.0892l-.8903 8.9951Zm21.3671-11.5197h-5.1449v-7.6963c0-.6973-.5651-1.2622-1.2623-1.2622-.6971 0-1.2622.5649-1.2622 1.2622v7.6963H44.6138c-.4072 0-.751-.3418-.751-.7466V12.3435c0-.4046.3438-.7466.751-.7466h21.3465v8.7104c0 .6972.5651 1.2622 1.2622 1.2622.6972 0 1.2623-.565 1.2623-1.2622v-8.7104h5.1449c6.1435 0 11.1418 4.9836 11.1418 11.1095 0 6.1284-4.9983 11.1142-11.1418 11.1142Z" fill="#fff"/><path d="M72.7087 19.6353c-.6971 0-1.2622.5649-1.2622 1.2622v3.6179c0 .6972.5651 1.2622 1.2622 1.2622.6972 0 1.2623-.565 1.2623-1.2622v-3.6179c0-.6973-.5651-1.2622-1.2623-1.2622ZM78.2856 19.6353c-.6971 0-1.2622.5649-1.2622 1.2622v3.6179c0 .6972.5651 1.2622 1.2622 1.2622.6972 0 1.2623-.565 1.2623-1.2622v-3.6179c0-.6973-.5651-1.2622-1.2623-1.2622ZM57.0797 14.7227h-5.6868c-2.4007 0-4.3538 1.9501-4.3538 4.3469s1.9529 4.3467 4.3538 4.3467h5.6868c2.3981 0 4.3489-1.9499 4.3489-4.3467 0-2.3968-1.951-4.3469-4.3489-4.3469Zm0 6.1691h-5.6868c-1.0087 0-1.8293-.8175-1.8293-1.8222 0-1.005.8205-1.8224 1.8293-1.8224h5.6868c1.0061 0 1.8244.8174 1.8244 1.8224 0 1.0047-.8185 1.8222-1.8244 1.8222Z" fill="#fff"/></svg>