<svg width="16" height="16" viewBox="0 0 16 16" fill="none" xmlns="http://www.w3.org/2000/svg"><path fill-rule="evenodd" clip-rule="evenodd" d="M8 16c-4.4183 0-8-3.5817-8-8s3.5817-8 8-8 8 3.5817 8 8-3.5817 8-8 8Zm5.3815-4.273c.7339-1.0577 1.164-2.3421 1.164-3.727 0-3.615-2.9305-6.5454-6.5455-6.5454C4.385 1.4546 1.4545 4.385 1.4545 8c0 1.3849.4301 2.6693 1.164 3.727.8176-1.0799 2.7374-1.5441 5.3722-1.5452-1.624-.0043-2.8998-1.1484-2.8998-3.6363C5.091 4.9133 6.2393 3.6364 8 3.6364c1.7558 0 2.9091 1.3975 2.9091 3.0545 0 2.3806-1.291 3.4867-2.8998 3.4909 2.6348.0011 4.5546.4653 5.3722 1.5452Zm-1.0435 1.1747c-.2129-.7654-1.7421-1.2653-4.338-1.2653-2.596 0-4.1251.4999-4.338 1.2653C4.817 13.9245 6.336 14.5455 8 14.5455c1.664 0 3.1831-.621 4.338-1.6438ZM6.5455 6.5455c0 1.6504.595 2.1818 1.4545 2.1818.8565 0 1.4545-.5103 1.4545-2.0364 0-.9088-.5704-1.6-1.4545-1.6-.921 0-1.4545.5934-1.4545 1.4546Z" fill="#fff" opacity=".8"/></svg>