<svg width="14" height="14" viewBox="0 0 14 14" fill="none" xmlns="http://www.w3.org/2000/svg"><path fill-rule="evenodd" clip-rule="evenodd" d="M2.8397 1.4018a1.5385 1.5385 0 0 0-.3568.0405c-.1555-.344-.361-.6527-.5947-.8873C1.4916.157.866 0 0 0v1.4c.529 0 .8334.0764.9018.145.2636.2646.4932.8021.4932 1.255l.007.099.6835 4.8014C.9419 7.7599.0559 8.6512.0009 9.7654L0 10.5c.0675 1.1508.9505 2.036 2.053 2.0989l.1583.0002C2.4983 13.4152 3.2736 14 4.185 14c.911 0 1.6862-.5844 1.9734-1.4h1.6332c.2872.8156 1.0623 1.4 1.9734 1.4 1.1557 0 2.0925-.9402 2.0925-2.1 0-1.1598-.9368-2.1-2.0925-2.1-.911 0-1.6862.5844-1.9734 1.4H6.1584c-.2872-.8156-1.0623-1.4-1.9734-1.4-.911 0-1.6862.5844-1.9734 1.4h-.1191c-.3557-.0214-.6748-.3413-.6987-.7419L1.395 9.8c.0188-.363.3357-.6811.732-.7009l1.377.0004.01.0005h7.03l.103-.0328a1.8335 1.8335 0 0 0 1.1526-1.0854l.0735-.146.2387-.4747c.247-.4914.494-.9836.7347-1.4644.5896-1.178.9604-1.9265 1.0425-2.1104.4216-.944-.4325-1.6706-1.3056-1.686l-9.7437-.6985ZM10.3017 7.7H3.5662a.1189.1189 0 0 1-.0856-.098l-.6834-4.8015 9.6834.696c-.1694.3467-.4774.9661-.8806 1.7718l-.0101.0202c-.2302.4598-.4769.9513-.7235 1.442l-.2385.4741-.0904.1796-.034.0793a.4371.4371 0 0 1-.2018.2365Zm-.5367 4.9c.3852 0 .6975-.3134.6975-.7 0-.3866-.3123-.7-.6975-.7s-.6975.3134-.6975.7c0 .3866.3123.7.6975.7Zm-4.8825-.7c0 .3866-.3123.7-.6975.7s-.6975-.3134-.6975-.7c0-.3866.3123-.7.6975-.7s.6975.3134.6975.7Z" fill="#fff"/></svg>