<svg width="34" height="34" viewBox="0 0 34 34" fill="none" xmlns="http://www.w3.org/2000/svg"><path fill-rule="evenodd" clip-rule="evenodd" d="M16.731.6c9.188 0 16.636 7.448 16.636 16.636 0 9.187-7.448 16.635-16.636 16.635-9.187 0-16.635-7.448-16.635-16.635C.096 8.048 7.544.6 16.73.6Z" fill="#fff" fill-opacity=".1"/><path fill-rule="evenodd" clip-rule="evenodd" d="M9 7.386h16a2 2 0 0 1 2 2v16a2 2 0 0 1-2 2H9a2 2 0 0 1-2-2v-16a2 2 0 0 1 2-2Zm0 2v16h16v-16H9Zm7.133 8.004H18v5.996h2V17.39h1.982v-2H20v-1.004a1 1 0 0 1 1-1h1v-2h-1a3 3 0 0 0-3 3v1.004h-1.867v2Z" fill="#fff"/></svg>