<svg width="36" height="36" viewBox="0 0 36 37" fill="none" xmlns="http://www.w3.org/2000/svg"><path fill-rule="evenodd" clip-rule="evenodd" d="M18.1331 1.5996c9.4014 0 17.0228 7.4482 17.0228 16.6361 0 9.1875-7.6214 16.6357-17.0228 16.6357-9.4014 0-17.0227-7.4482-17.0227-16.6357 0-9.1879 7.6213-16.6361 17.0227-16.6361Z" fill="#fff" fill-opacity=".1"/><path d="M19.7607 21.0601c.6375-.2061 1.4536 1.3602 2.3224 1.9597.6522.4541 1.1516.3561 1.1516.3561l2.3158-.0334s1.2102-.0747.6381-1.0362c-.0473-.08-.3354-.7128-1.7237-2.015-1.4516-1.3623-1.2549-1.1416.4928-3.4967 1.0649-1.4356 1.4909-2.3124 1.3576-2.6858-.128-.3595-.9102-.2661-.9102-.2661l-2.6092.018c-.254.0007-.4694.0794-.5674.3434-.002.0027-.4141 1.1109-.9635 2.0531-1.1609 1.993-1.6243 2.099-1.8164 1.9743-.4407-.2887-.3294-1.1582-.3294-1.7763 0-1.9317.2881-2.7372-.5641-2.9452-.2847-.0694-.4927-.1147-1.2189-.1214-.9281-.014-1.7163 0-2.163.2194-.2968.1487-.5241.4747-.3861.4934.1734.0234.5621.1067.7701.3908.2674.368.2594 1.1929.2594 1.1929s.1527 2.2744-.3601 2.5564c-.352.1934-.8334-.2013-1.869-2.011-.5287-.9255-.9282-1.9484-.9282-1.9484s-.0773-.19-.2173-.294c-.1667-.1234-.4001-.1627-.4001-.1627l-2.4765.016s-.372.0106-.5087.1747c-.1214.1453-.01.4454-.01.4454s1.9397 4.5882 4.1361 6.8993c2.0137 2.1217 4.3021 1.981 4.3021 1.981h1.0369s.3127-.036.4728-.208c.1493-.16.1426-.4607.1426-.4607s-.0206-1.4063.6235-1.613Z" fill="#fff"/></svg>