<svg width="220" height="50" viewBox="0 0 220 50" fill="none" xmlns="http://www.w3.org/2000/svg">
<g filter="url(#filter0_i_850_8535)">
<rect width="220" height="50" fill="#EE3643"/>
</g>
<mask id="mask0_850_8535" style="mask-type:alpha" maskUnits="userSpaceOnUse" x="0" y="0" width="220" height="50">
<rect width="220" height="50" fill="#EE3643"/>
</mask>
<g mask="url(#mask0_850_8535)">
<g filter="url(#filter1_i_850_8535)">
<rect width="220" height="50" fill="#EE3643"/>
</g>
</g>
<path fill-rule="evenodd" clip-rule="evenodd" d="M158.847 14.5304V30.2658H156.734V14.5304H152.978V12.782H162.604V14.5304H158.847ZM150.712 23.7843C150.344 24.2755 149.883 24.6252 149.327 24.8333C148.771 25.0415 148.11 25.1455 147.343 25.1455C146.983 25.1455 146.576 25.1206 146.122 25.0706C145.668 25.0207 145.293 24.9624 144.995 24.8958V30.2658H142.882V13.0318C143.477 12.8486 144.076 12.7196 144.678 12.6446C145.281 12.5697 145.934 12.5322 146.639 12.5322C147.578 12.5322 148.376 12.6363 149.034 12.8444C149.691 13.0526 150.223 13.3981 150.63 13.881C151.037 14.3639 151.334 15.0049 151.522 15.8042C151.71 16.6035 151.804 17.5942 151.804 18.7764C151.804 19.992 151.714 21.0077 151.534 21.8236C151.354 22.6395 151.08 23.2931 150.712 23.7843ZM149.515 16.5285C149.397 15.9291 149.214 15.4545 148.963 15.1048C148.713 14.7552 148.396 14.5096 148.012 14.368C147.629 14.2265 147.171 14.1557 146.639 14.1557H144.995V23.3972H146.639C147.171 23.3972 147.629 23.3264 148.012 23.1849C148.396 23.0433 148.713 22.7977 148.963 22.448C149.214 22.0984 149.397 21.6238 149.515 21.0244C149.632 20.4249 149.691 19.6756 149.691 18.7764C149.691 17.8773 149.632 17.128 149.515 16.5285ZM137.6 25.77H132.904L131.847 30.2658H129.734L133.726 12.782H136.778L140.769 30.2658H138.656L137.6 25.77ZM135.299 15.2797H135.205L133.256 24.0216H137.247L135.299 15.2797ZM125.156 17.2778H125.039L121.634 28.0179H119.521L116.117 17.2778H116L115.295 30.2658H113.182L114.121 12.782H116.704L120.531 24.7709H120.625L124.452 12.782H127.034L127.974 30.2658H125.861L125.156 17.2778ZM109.379 28.6423C108.941 29.325 108.412 29.8079 107.794 30.091C107.176 30.374 106.467 30.5156 105.669 30.5156C104.871 30.5156 104.163 30.374 103.544 30.091C102.926 29.8079 102.398 29.325 101.96 28.6423C101.521 27.9596 101.189 27.0396 100.962 25.8824C100.735 24.7251 100.621 23.2723 100.621 21.5239C100.621 19.7755 100.735 18.3227 100.962 17.1654C101.189 16.0082 101.521 15.0882 101.96 14.4055C102.398 13.7228 102.926 13.2399 103.544 12.9568C104.163 12.6738 104.871 12.5322 105.669 12.5322C106.467 12.5322 107.176 12.6738 107.794 12.9568C108.412 13.2399 108.941 13.7228 109.379 14.4055C109.817 15.0882 110.15 16.0082 110.377 17.1654C110.604 18.3227 110.717 19.7755 110.717 21.5239C110.717 23.2723 110.604 24.7251 110.377 25.8824C110.15 27.0396 109.817 27.9596 109.379 28.6423ZM108.357 17.8273C108.193 16.8616 107.978 16.0956 107.712 15.5295C107.446 14.9633 107.133 14.572 106.773 14.3555C106.413 14.1391 106.045 14.0308 105.669 14.0308C105.294 14.0308 104.926 14.1391 104.566 14.3555C104.206 14.572 103.893 14.9633 103.627 15.5295C103.361 16.0956 103.145 16.8616 102.981 17.8273C102.817 18.7931 102.734 20.0253 102.734 21.5239C102.734 23.0225 102.817 24.2547 102.981 25.2205C103.145 26.1863 103.361 26.9522 103.627 27.5184C103.893 28.0845 104.206 28.4758 104.566 28.6923C104.926 28.9087 105.294 29.017 105.669 29.017C106.045 29.017 106.413 28.9087 106.773 28.6923C107.133 28.4758 107.446 28.0845 107.712 27.5184C107.978 26.9522 108.193 26.1863 108.357 25.2205C108.522 24.2547 108.604 23.0225 108.604 21.5239C108.604 20.0253 108.522 18.7931 108.357 17.8273ZM95.6909 22.2732H90.7605V30.2658H88.6475V12.782H90.7605V20.5248H95.6909V12.782H97.804V30.2658H95.6909V22.2732ZM84.5396 30.2658L81.6048 22.7727L78.67 30.2658H76.5569L80.0787 21.2741L76.9091 12.782H79.0222L81.6048 19.7755L84.1874 12.782H86.3004L83.1309 21.2741L86.6526 30.2658H84.5396ZM67.283 12.782H75.2656V14.5304H69.3961V20.2751H74.5613V22.0234H69.3961V28.5174H75.2656V30.2658H67.283V12.782ZM61.6483 30.2658H59.5352V14.5304H55.7787V12.782H65.4048V14.5304H61.6483V30.2658Z" fill="white"/>
<defs>
<filter id="filter0_i_850_8535" x="0" y="0" width="220" height="50" filterUnits="userSpaceOnUse" color-interpolation-filters="sRGB">
<feFlood flood-opacity="0" result="BackgroundImageFix"/>
<feBlend mode="normal" in="SourceGraphic" in2="BackgroundImageFix" result="shape"/>
<feColorMatrix in="SourceAlpha" type="matrix" values="0 0 0 0 0 0 0 0 0 0 0 0 0 0 0 0 0 0 127 0" result="hardAlpha"/>
<feOffset dy="-5"/>
<feComposite in2="hardAlpha" operator="arithmetic" k2="-1" k3="1"/>
<feColorMatrix type="matrix" values="0 0 0 0 0 0 0 0 0 0 0 0 0 0 0 0 0 0 0.24 0"/>
<feBlend mode="normal" in2="shape" result="effect1_innerShadow_850_8535"/>
</filter>
<filter id="filter1_i_850_8535" x="0" y="0" width="220" height="50" filterUnits="userSpaceOnUse" color-interpolation-filters="sRGB">
<feFlood flood-opacity="0" result="BackgroundImageFix"/>
<feBlend mode="normal" in="SourceGraphic" in2="BackgroundImageFix" result="shape"/>
<feColorMatrix in="SourceAlpha" type="matrix" values="0 0 0 0 0 0 0 0 0 0 0 0 0 0 0 0 0 0 127 0" result="hardAlpha"/>
<feOffset dy="-5"/>
<feComposite in2="hardAlpha" operator="arithmetic" k2="-1" k3="1"/>
<feColorMatrix type="matrix" values="0 0 0 0 0 0 0 0 0 0 0 0 0 0 0 0 0 0 0.24 0"/>
<feBlend mode="normal" in2="shape" result="effect1_innerShadow_850_8535"/>
</filter>
</defs>
</svg>
